<svg width="14" height="10" fill="none" xmlns="http://www.w3.org/2000/svg"><path d="M5.855 10L14 1.795 12.218 0 4.073 8.205 5.855 10z" fill="#fff"/><path d="M5.855 10L14 1.795 12.218 0 4.073 8.205 5.855 10z" fill="#fff"/><path d="M5.855 10L14 1.795 12.218 0 4.073 8.205 5.855 10z" fill="#fff"/><path d="M5.855 10L14 1.795 12.218 0 4.073 8.205 5.855 10z" fill="#fff"/><path d="M7.636 8.205L1.782 2.308 0 4.103 5.855 10l1.781-1.795z" fill="#fff"/><path d="M7.636 8.205L1.782 2.308 0 4.103 5.855 10l1.781-1.795z" fill="#fff"/><path d="M7.636 8.205L1.782 2.308 0 4.103 5.855 10l1.781-1.795z" fill="#fff"/><path d="M7.636 8.205L1.782 2.308 0 4.103 5.855 10l1.781-1.795z" fill="#fff"/></svg>