<svg width="91" height="78" fill="none" xmlns="http://www.w3.org/2000/svg"><path opacity=".2" fill-rule="evenodd" clip-rule="evenodd" d="M0 65.121c13.63-6.68 20.445-14.531 20.445-23.55-5.81-.669-10.614-3.035-14.412-7.1C2.234 30.408.335 25.704.335 20.359c0-5.68 1.844-10.467 5.53-14.365C9.552 2.096 14.188.147 19.775.147c6.256 0 11.674 2.534 16.254 7.6 4.58 5.067 6.871 11.219 6.871 18.457 0 21.714-12.177 38.695-36.532 50.943L0 65.121zm48.1 0c13.742-6.68 20.612-14.531 20.612-23.55-5.921-.669-10.78-3.035-14.58-7.1-3.798-4.064-5.697-8.768-5.697-14.113 0-5.68 1.871-10.467 5.614-14.365C57.792 2.096 62.456.147 68.042.147c6.256 0 11.647 2.534 16.171 7.6C88.738 12.814 91 18.966 91 26.204c0 21.714-12.121 38.695-36.364 50.943L48.1 65.121z" fill="#fff"/></svg>