<svg version="1.2" xmlns="http://www.w3.org/2000/svg" width="352" height="352"><defs><clipPath clipPathUnits="userSpaceOnUse" id="a"><path d="M170.77 351.71C73.67 348.87-2.74 267.97.11 171.03 2.95 74.09 83.97-2.19 181.06.66c71.28 2.09 131.41 46.24 157.23 107.92"/></clipPath></defs><g opacity=".5"><path d="M176.1 1.6c96.4 0 174.5 78.1 174.5 174.5s-78.1 174.5-174.5 174.5S1.6 272.5 1.6 176.1 79.7 1.6 176.1 1.6z" fill="none" stroke="#fff" stroke-width="2" stroke-dasharray="10"/><g clip-path="url(#a)"><path d="M170.7 354.7C71.9 351.8-5.8 269.5-2.9 170.9l6 .2C.3 266.4 75.4 345.9 170.9 348.7zM-2.9 170.9C0 72.3 82.4-5.2 181.1-2.3l-.1 6C85.5.9 5.9 75.8 3.1 171.1zm184-173.3C253.6-.2 314.8 44.7 341 107.4l-5.5 2.3C310.1 49.1 251 5.7 181 3.6z" fill="#c00472"/></g></g></svg>