<svg width="34" height="34" fill="none" xmlns="http://www.w3.org/2000/svg"><path d="M2.912 33.441h7.307a.418.418 0 00.37-.214.423.423 0 000-.43l-.871-1.546a.61.61 0 01-.052-.488.62.62 0 01.312-.377.633.633 0 01.845.273l1.443 2.561a.432.432 0 00.37.221h7.82a.417.417 0 00.37-.22l1.444-2.562a.64.64 0 01.845-.273c.15.078.26.215.312.377a.668.668 0 01-.052.488l-.871 1.553a.422.422 0 000 .43.44.44 0 00.37.214h7.306c.709 0 1.248-.611 1.112-1.274-.514-2.496-1.807-5.519-3.094-8.112a.655.655 0 00-.41-.345.694.694 0 00-.533.059c-1.787 1.007-5.356 2.515-10.712 2.515s-8.918-1.508-10.706-2.515a.691.691 0 00-.533-.059.672.672 0 00-.41.345c-1.286 2.6-2.58 5.616-3.093 8.112-.13.656.403 1.267 1.111 1.267zM21.568 9.716c1.306.734 2.737.916 2.75.916l.058.007a5.078 5.078 0 005.22-2.893c1.241-2.671.039-5.252-.845-6.61a2.218 2.218 0 00-1.866-.988H6.221a2.228 2.228 0 00-1.872.994c-.89 1.359-2.086 3.94-.845 6.61a5.11 5.11 0 002.139 2.295c.936.52 2.015.728 3.08.592l.053-.007c.02 0 1.527-.201 2.853-.975a.634.634 0 01.865.189.63.63 0 01.084.48.64.64 0 01-.292.397c-1.56.917-3.276 1.138-3.348 1.15a8.93 8.93 0 01-1.105.079c-.357 0-.721-.026-1.072-.078a.318.318 0 00-.28.104.316.316 0 00-.065.292l.293.995c.045.15.188.24.338.221 1.65-.202 4.849-.5 9.51-.5 4.66 0 7.858.298 9.51.5.149.02.292-.078.337-.221l.293-.995a.3.3 0 00-.065-.292.325.325 0 00-.28-.104 6.644 6.644 0 01-1.079.078c-.37 0-.74-.026-1.105-.078-.065-.007-1.703-.221-3.23-1.08a.626.626 0 01-.3-.39.597.597 0 01.072-.48.636.636 0 01.858-.208z" fill="#fff"/><path d="M16.55 25.03c5.804 0 9.405-1.898 10.711-2.73.143-.09.26-.22.338-.364 1.378-2.58.377-5.083-.728-6.747a.953.953 0 00-.689-.429c-1.514-.195-4.79-.527-9.626-.527-4.836 0-8.119.332-9.627.527a.995.995 0 00-.689.429c-1.105 1.664-2.106 4.166-.728 6.747.078.15.195.273.338.364 1.294.839 4.901 2.73 10.7 2.73zm-.625-4.934a.624.624 0 011.248 0v.384a.624.624 0 01-1.248 0v-.384zM.208 18.361l1.846 1.293a.48.48 0 00.754-.396v-.572h.806a.359.359 0 00.254-.104.37.37 0 00.104-.254v-.727a.359.359 0 00-.104-.254.37.37 0 00-.254-.104h-.806v-.572a.468.468 0 00-.26-.422.468.468 0 00-.494.032L.208 17.568a.478.478 0 00-.208.396c0 .157.078.306.208.397zM30.396 16.671v.572h-.806a.359.359 0 00-.254.104.37.37 0 00-.104.253v.728a.36.36 0 00.104.254.37.37 0 00.254.104h.806v.572c0 .176.097.345.26.423a.468.468 0 00.494-.033l1.846-1.293a.47.47 0 00.201-.39.486.486 0 00-.201-.39L31.15 16.28a.469.469 0 00-.494-.032.461.461 0 00-.26.422z" fill="#fff"/></svg>