<svg version="1.2" xmlns="http://www.w3.org/2000/svg" width="526" height="527"><style>.s0,.s1{fill:none;stroke:#da0080}.s0{stroke-width:2;stroke-dasharray:10}.s1{stroke-width:4}</style><g id="Layer" opacity=".3"><path id="Layer" class="s0" d="M358 506.3C223.8 559.1 72.3 493.1 19.5 359-33.2 224.8 32.7 73.3 166.9 20.5 301-32.2 452.5 33.7 505.3 167.9 558.1 302 492.1 453.5 358 506.3z"/><path id="Layer" class="s1" d="M275.4 2.7c99.2 5 191.2 66.7 229.9 165.2C558.1 302 492.1 453.5 358 506.3 223.8 559.1 72.3 493.1 19.5 359"/></g><g id="Layer" opacity=".3"><path id="Layer" class="s0" d="M132.6 351.7c-48.7-71.7-30.1-169.3 41.6-218.1 71.7-48.7 169.3-30.1 218 41.6 48.7 71.7 30.1 169.3-41.5 218-71.7 48.7-169.3 30.1-218.1-41.5z"/><path id="Layer" class="s1" d="M417.1 236.5c10.2 58.8-13.8 120.9-66.4 156.7-71.7 48.7-169.3 30.1-218.1-41.5-48.7-71.7-30.1-169.3 41.6-218.1"/></g></svg>