<svg width="32" height="45" fill="none" xmlns="http://www.w3.org/2000/svg"><path d="M15.526 9.207A4.527 4.527 0 0111 4.681a4.527 4.527 0 119.051-.008 4.519 4.519 0 01-4.525 4.534zm-10.985 22H2.585A2.592 2.592 0 010 28.622v-9.06A7.76 7.76 0 017.763 11.8h.44A11.625 11.625 0 003.88 20.85v6.475c0 1.359.236 2.663.66 3.881zM22.85 11.792h.44a7.76 7.76 0 017.762 7.763v9.06a2.587 2.587 0 01-2.585 2.584H26.51c.432-1.218.66-2.522.66-3.881v-6.475c.008-3.645-1.681-6.914-4.321-9.051zm-8.612 27.107v3.308c0 1.069-.872 1.94-1.94 1.94H10.26c-.958 0-1.775-.699-1.917-1.65l-1.037-6.93a11.6 11.6 0 006.93 3.332zm9.515-3.331l-1.037 6.93a1.936 1.936 0 01-1.917 1.65H18.77a1.945 1.945 0 01-1.941-1.941v-3.308a11.6 11.6 0 006.922-3.331z" fill="#fff"/><path d="M15.524 11.792a9.057 9.057 0 019.06 9.06v6.474a9.057 9.057 0 01-9.06 9.059c-5.005 0-9.051-4.054-9.051-9.06v-6.474c0-4.997 4.054-9.059 9.051-9.059z" fill="#fff"/></svg>