<svg width="39" height="49" fill="none" xmlns="http://www.w3.org/2000/svg"><path fill-rule="evenodd" clip-rule="evenodd" d="M9.79.148a5.018 5.018 0 015.047 5.047c0 2.752-2.236 4.99-5.047 4.99a4.993 4.993 0 01-4.99-4.99C4.8 2.385 7.038.148 9.79.148zM.022 27.686c-.283 1.723 2.264 2.183 2.604.46l2.037-9.532.34 10.393-.906 17.17c-.17 2.47 3.566 2.699 3.68.23l2.037-15.734 2.094 15.734c.114 2.469 3.792 2.24 3.68-.23l-.906-17.17.283-10.393 2.094 9.532c.283 1.723 2.886 1.263 2.547-.46 0 0-1.245-10.738-2.038-12.288-1.64-3.388-4.301-3.905-7.754-3.905-3.453 0-6.113.517-7.698 3.905C1.324 16.948.022 27.686.022 27.686zM30.082 1.457c2.42 0 4.391 2.069 4.391 4.552 0 2.542-1.97 4.611-4.391 4.611-2.365 0-4.336-2.069-4.336-4.61 0-2.484 1.97-4.553 4.336-4.553zM30.08 34.695h.802l1.547 11.574c.115 2.663 2.235 2.431 2.12-.289l-.63-11.285h4.297l-4.068-9.317c0-.695-.115-1.331-.459-1.39-.63-2.95.574-4.629 1.146-7.812l2.292 9.896c.344 1.91 2.006 1.215 1.662-.637 0 0-1.433-9.317-2.235-11.053-1.031-2.72-2.579-2.777-6.36-3.761h-.172c-3.724.983-5.329 1.041-6.36 3.761-.802 1.737-2.235 11.053-2.235 11.053-.343 1.852 1.318 2.547 1.662.637l2.292-9.896c.573 3.183 1.776 4.861 1.146 7.813-.344.058-.459.694-.459 1.389L22 34.695h4.298l-.573 11.285c-.172 2.72 1.948 2.952 2.062.29l1.547-11.575h.746z" fill="#fff"/></svg>