<svg width="110" height="110" viewBox="0 0 110 110" fill="none" xmlns="http://www.w3.org/2000/svg">
<path d="M55 0C24.6673 0 0 24.6673 0 55C0 85.3327 24.6673 110 55 110C85.3327 110 110 85.3327 110 55C110 24.6673 85.3327 0 55 0ZM79.6673 48.7556L55.2274 73.2989C53.6147 74.9117 51.4023 75.8421 49.2105 75.8421C47.0188 75.8421 44.8064 75.0357 43.1936 73.2989L30.3327 60.438C26.9831 57.0883 26.9831 51.6297 30.3327 48.2801C33.6823 44.9305 39.141 44.9305 42.4906 48.2801L49.2105 55L67.6128 36.4737C70.9624 33.1241 76.4211 33.1241 79.7707 36.4737C83.141 39.8233 83.0169 45.5094 79.6673 48.7556Z" fill="white"/>
</svg>
