<svg width="14" height="10" viewBox="0 0 14 10" fill="none" xmlns="http://www.w3.org/2000/svg">
<path d="M5.85451 10L14 1.79487L12.2182 0L4.07268 8.20513L5.85451 10Z" fill="white"/>
<path d="M5.85451 10L14 1.79487L12.2182 0L4.07268 8.20513L5.85451 10Z" fill="white"/>
<path d="M5.85451 10L14 1.79487L12.2182 0L4.07268 8.20513L5.85451 10Z" fill="white"/>
<path d="M5.85451 10L14 1.79487L12.2182 0L4.07268 8.20513L5.85451 10Z" fill="white"/>
<path d="M7.6364 8.20513L1.78183 2.30769L0 4.10256L5.85451 10L7.6364 8.20513Z" fill="white"/>
<path d="M7.6364 8.20513L1.78183 2.30769L0 4.10256L5.85451 10L7.6364 8.20513Z" fill="white"/>
<path d="M7.6364 8.20513L1.78183 2.30769L0 4.10256L5.85451 10L7.6364 8.20513Z" fill="white"/>
<path d="M7.6364 8.20513L1.78183 2.30769L0 4.10256L5.85451 10L7.6364 8.20513Z" fill="white"/>
</svg>
