<svg width="91" height="78" viewBox="0 0 91 78" fill="none" xmlns="http://www.w3.org/2000/svg">
<path opacity="0.2" fill-rule="evenodd" clip-rule="evenodd" d="M0 65.1214C13.6298 58.4403 20.4445 50.59 20.4445 41.5705C14.6351 40.9023 9.83127 38.5361 6.03281 34.4718C2.23436 30.4074 0.335159 25.7028 0.335159 20.3579C0.335159 14.6789 2.1785 9.89079 5.86523 5.99345C9.55197 2.0961 14.1883 0.147461 19.7742 0.147461C26.0305 0.147461 31.4488 2.6807 36.0293 7.74725C40.6098 12.8138 42.9 18.9659 42.9 26.2039C42.9 47.9176 30.7228 64.8987 6.36797 77.1475L0 65.1214ZM48.1 65.1214C61.8415 58.4403 68.7121 50.59 68.7121 41.5705C62.791 40.9023 57.9313 38.5361 54.1328 34.4718C50.3344 30.4074 48.4352 25.7028 48.4352 20.3579C48.4352 14.6789 50.3064 9.89079 54.049 5.99345C57.7916 2.0961 62.4558 0.147461 68.0418 0.147461C74.2981 0.147461 79.6885 2.6807 84.2131 7.74725C88.7377 12.8138 91 18.9659 91 26.2039C91 47.9176 78.8786 64.8987 54.6355 77.1475L48.1 65.1214Z" fill="white"/>
</svg>
