<svg width="39" height="49" viewBox="0 0 39 49" fill="none" xmlns="http://www.w3.org/2000/svg">
<path fill-rule="evenodd" clip-rule="evenodd" d="M9.79016 0.147705C12.6004 0.147705 14.8371 2.38434 14.8371 5.19469C14.8371 7.94735 12.6005 10.1841 9.79016 10.1841C7.0375 10.1841 4.80078 7.94743 4.80078 5.19469C4.80078 2.38443 7.03742 0.147705 9.79016 0.147705Z" fill="white"/>
<path fill-rule="evenodd" clip-rule="evenodd" d="M0.0218888 27.6864C-0.26102 29.4092 2.2858 29.8685 2.62557 28.1457L4.66313 18.6138L5.0029 29.0073L4.09733 46.177C3.92745 48.6462 7.66308 48.8758 7.77651 46.4067L9.81407 30.6726L11.9081 46.4067C12.0215 48.8759 15.7003 48.6461 15.5873 46.177L14.6818 29.0073L14.9647 18.6138L17.0587 28.1457C17.3416 29.8685 19.9453 29.4092 19.6059 27.6864C19.6059 27.6864 18.3606 16.948 17.5683 15.3977C15.9271 12.0098 13.2669 11.4932 9.81413 11.4932C6.36139 11.4932 3.7012 12.0099 2.11642 15.3977C1.32388 16.9482 0.0223597 27.6864 0.0223597 27.6864H0.0218888Z" fill="white"/>
<path fill-rule="evenodd" clip-rule="evenodd" d="M30.0816 1.45679C32.5027 1.45679 34.4734 3.52603 34.4734 6.0091C34.4734 8.55127 32.5027 10.6204 30.0816 10.6204C27.7167 10.6204 25.7461 8.55118 25.7461 6.0091C25.7461 3.52594 27.7168 1.45679 30.0816 1.45679Z" fill="white"/>
<path fill-rule="evenodd" clip-rule="evenodd" d="M30.0798 34.6954H30.8818L32.4289 46.2694C32.5437 48.9315 34.6636 48.7001 34.5489 45.9801L33.9185 34.695H38.2159L34.1478 25.3775C34.1478 24.6831 34.033 24.0465 33.6894 23.9887C33.059 21.0373 34.2625 19.3592 34.8354 16.176L37.1272 26.0721C37.4712 27.9816 39.1328 27.2872 38.7888 25.4354C38.7888 25.4354 37.3565 16.1179 36.5541 14.3822C35.5226 11.6623 33.9754 11.6046 30.1939 10.6205H30.0223C26.2977 11.6041 24.6934 11.6623 23.6621 14.3822C22.8598 16.1185 21.4275 25.4354 21.4275 25.4354C21.0835 27.2872 22.7454 27.9816 23.089 26.0721L25.3809 16.176C25.954 19.3588 27.1572 21.0373 26.5269 23.9887C26.1829 24.0465 26.0685 24.6831 26.0685 25.3775L22.0003 34.695H26.2977L25.7246 45.9801C25.5526 48.7 27.6728 48.9315 27.7873 46.2694L29.3345 34.6954H30.0798Z" fill="white"/>
</svg>
