<svg version="1.2" xmlns="http://www.w3.org/2000/svg" viewBox="0 0 526 527" width="526" height="527">
	<title>Group 48-svg</title>
	<style>
		.s0 { fill: none;stroke: #da0080;stroke-width: 2;stroke-dasharray: 10 } 
		.s1 { fill: none;stroke: #da0080;stroke-width: 4 } 
	</style>
	<g id="Layer" style="opacity: .3">
		<path id="Layer" class="s0" d="m358 506.3c-134.2 52.8-285.7-13.2-338.5-147.3-52.7-134.2 13.2-285.7 147.4-338.5 134.1-52.7 285.6 13.2 338.4 147.4 52.8 134.1-13.2 285.6-147.3 338.4z"/>
		<path id="Layer" class="s1" d="m275.4 2.7c99.2 5 191.2 66.7 229.9 165.2 52.8 134.1-13.2 285.6-147.3 338.4-134.2 52.8-285.7-13.2-338.5-147.3"/>
	</g>
	<g id="Layer" style="opacity: .3">
		<path id="Layer" class="s0" d="m132.6 351.7c-48.7-71.7-30.1-169.3 41.6-218.1 71.7-48.7 169.3-30.1 218 41.6 48.7 71.7 30.1 169.3-41.5 218-71.7 48.7-169.3 30.1-218.1-41.5z"/>
		<path id="Layer" class="s1" d="m417.1 236.5c10.2 58.8-13.8 120.9-66.4 156.7-71.7 48.7-169.3 30.1-218.1-41.5-48.7-71.7-30.1-169.3 41.6-218.1"/>
	</g>
</svg>