<svg width="32" height="45" viewBox="0 0 32 45" fill="none" xmlns="http://www.w3.org/2000/svg">
<path d="M15.5257 9.20699C13.0271 9.20699 11 7.17985 11 4.68128C11 2.17485 13.0271 0.147705 15.5257 0.147705C18.0243 0.147705 20.0514 2.17485 20.0514 4.67342C20.0593 7.17985 18.0321 9.20699 15.5257 9.20699ZM4.54143 31.207H2.585C1.16286 31.207 0 30.0441 0 28.622V19.5627C0 15.2727 3.47286 11.7998 7.76286 11.7998H8.20286C5.57071 13.9291 3.88143 17.1977 3.88143 20.8513V27.3256C3.88143 28.6848 4.11714 29.9891 4.54143 31.207ZM22.8486 11.792H23.2886C27.5786 11.792 31.0514 15.2648 31.0514 19.5548V28.6141C31.0514 30.0441 29.8886 31.1991 28.4664 31.1991H26.51C26.9421 29.9813 27.17 28.677 27.17 27.3177V20.8434C27.1779 17.1977 25.4886 13.9291 22.8486 11.792ZM14.2371 38.8991V42.207C14.2371 43.2756 13.365 44.1477 12.2964 44.1477H10.2614C9.30286 44.1477 8.48571 43.4484 8.34429 42.4977L7.30714 35.5677C9.12214 37.3827 11.5421 38.6006 14.2371 38.8991ZM23.7521 35.5677L22.715 42.4977C22.5736 43.4484 21.7564 44.1477 20.7979 44.1477H18.7707C17.7021 44.1477 16.83 43.2756 16.83 42.207V38.8991C19.5171 38.6006 21.9371 37.3827 23.7521 35.5677Z" fill="white"/>
<path d="M15.5241 11.792C20.5291 11.792 24.5834 15.8463 24.5834 20.8513V27.3256C24.5834 32.3306 20.5291 36.3848 15.5241 36.3848C10.5191 36.3848 6.47266 32.3306 6.47266 27.3256V20.8513C6.47266 15.8541 10.5269 11.792 15.5241 11.792Z" fill="white"/>
</svg>
