<svg width="34" height="34" viewBox="0 0 34 34" fill="none" xmlns="http://www.w3.org/2000/svg">
<path d="M2.91237 33.4412H10.2185C10.3745 33.4412 10.511 33.3632 10.589 33.2267C10.667 33.0967 10.667 32.9277 10.589 32.7977L9.71795 31.2507C9.63345 31.1012 9.61395 30.9257 9.66595 30.7632C9.71145 30.6007 9.82845 30.4642 9.97795 30.3862C10.29 30.2301 10.6605 30.3536 10.823 30.6592L12.266 33.2202C12.344 33.3567 12.487 33.4412 12.6365 33.4412H20.4561C20.6121 33.4412 20.7551 33.3567 20.8266 33.2202L22.2696 30.6592C22.4321 30.3536 22.8091 30.2366 23.1146 30.3862C23.2641 30.4642 23.3746 30.6007 23.4266 30.7632C23.4721 30.9257 23.4526 31.1012 23.3746 31.2507L22.5036 32.8042C22.4256 32.9342 22.4256 33.1032 22.5036 33.2332C22.5816 33.3632 22.7246 33.4477 22.8741 33.4477H30.1802C30.8887 33.4477 31.4282 32.8367 31.2917 32.1737C30.7782 29.6776 29.4847 26.6551 28.1977 24.0616C28.1132 23.8926 27.9702 23.7691 27.7882 23.7171C27.6127 23.6651 27.4177 23.6846 27.2552 23.7756C25.4676 24.7831 21.8991 26.2911 16.543 26.2911C11.187 26.2911 7.62493 24.7831 5.8374 23.7756C5.6749 23.6846 5.4864 23.6651 5.3044 23.7171C5.1289 23.7691 4.97939 23.8926 4.89489 24.0616C3.60788 26.6616 2.31436 29.6776 1.80085 32.1737C1.67085 32.8302 2.20386 33.4412 2.91237 33.4412Z" fill="white"/>
<path d="M21.568 9.71591C22.8745 10.4504 24.3046 10.6324 24.3176 10.6324L24.3761 10.6389C25.4421 10.7689 26.5211 10.5609 27.4571 10.0409C28.3931 9.5209 29.1471 8.72139 29.5956 7.74638C30.8371 5.07485 29.6346 2.49432 28.7506 1.1358C28.3411 0.518292 27.6391 0.141288 26.8851 0.147788H6.22134C5.46733 0.141288 4.76532 0.518292 4.34932 1.1423C3.45881 2.50082 2.26279 5.08135 3.50431 7.75288C3.95931 8.72139 4.70682 9.5274 5.64283 10.0474C6.57885 10.5674 7.65786 10.7754 8.72387 10.6389L8.77587 10.6324C8.79537 10.6324 10.3034 10.4309 11.6294 9.65741C11.9219 9.4754 12.3054 9.5599 12.4939 9.84591C12.5849 9.98891 12.6174 10.1644 12.5784 10.3269C12.5394 10.4894 12.4354 10.6324 12.2859 10.7234C10.7259 11.6399 9.00988 11.8609 8.93837 11.8739C8.57437 11.9259 8.20387 11.9454 7.83336 11.9519C7.47586 11.9519 7.11185 11.9259 6.76085 11.8739C6.65685 11.8609 6.54635 11.8999 6.48134 11.9779C6.40984 12.0559 6.39034 12.1664 6.41634 12.2704L6.70885 13.265C6.75435 13.4145 6.89735 13.5055 7.04685 13.486C8.69787 13.2845 11.8959 12.9854 16.5565 12.9854C21.217 12.9854 24.4151 13.2845 26.0661 13.486C26.2156 13.5055 26.3586 13.408 26.4041 13.265L26.6966 12.2704C26.7291 12.1664 26.7031 12.0559 26.6316 11.9779C26.5601 11.8999 26.4561 11.8609 26.3521 11.8739C25.9946 11.9259 25.6371 11.9584 25.2731 11.9519C24.9026 11.9519 24.5321 11.9259 24.1681 11.8739C24.1031 11.8674 22.465 11.6529 20.9375 10.7949C20.788 10.7104 20.684 10.5739 20.6385 10.4049C20.593 10.2424 20.619 10.0669 20.71 9.92391C20.892 9.6314 21.2755 9.5469 21.568 9.71591Z" fill="white"/>
<path d="M16.5491 25.0301C22.3537 25.0301 25.9548 23.1321 27.2613 22.3001C27.4043 22.2091 27.5213 22.0791 27.5993 21.9361C28.9773 19.3555 27.9763 16.853 26.8713 15.189C26.7153 14.9485 26.4618 14.7925 26.1823 14.76C24.6677 14.565 21.3917 14.2335 16.5556 14.2335C11.7196 14.2335 8.43703 14.565 6.92902 14.76C6.64951 14.799 6.39601 14.955 6.24001 15.189C5.13499 16.853 4.13398 19.3555 5.512 21.9361C5.59 22.0856 5.707 22.2091 5.85 22.3001C7.14352 23.1386 10.7511 25.0301 16.5491 25.0301ZM15.9251 20.0965C15.9251 19.752 16.2046 19.4725 16.5491 19.4725C16.8936 19.4725 17.1731 19.752 17.1731 20.0965V20.48C17.1731 20.8245 16.8936 21.104 16.5491 21.104C16.2046 21.104 15.9251 20.8245 15.9251 20.48V20.0965Z" fill="white"/>
<path d="M0.208003 18.361L2.05403 19.6545C2.20353 19.7585 2.39203 19.7715 2.55453 19.687C2.71053 19.6025 2.81453 19.44 2.80803 19.258V18.686H3.61404C3.71155 18.686 3.80255 18.647 3.86755 18.582C3.93255 18.517 3.97155 18.4195 3.97155 18.3285V17.6005C3.97155 17.503 3.93255 17.412 3.86755 17.347C3.80255 17.282 3.70505 17.243 3.61404 17.243H2.80803V16.671C2.80803 16.4955 2.71053 16.3265 2.54803 16.2485C2.39203 16.164 2.19703 16.177 2.05403 16.281L0.208003 17.568C0.078001 17.659 0 17.802 0 17.9645C0 18.1205 0.078001 18.27 0.208003 18.361Z" fill="white"/>
<path d="M30.3959 16.671V17.243H29.5899C29.4924 17.243 29.4014 17.282 29.3364 17.347C29.2714 17.412 29.2324 17.5095 29.2324 17.6005V18.3285C29.2324 18.426 29.2714 18.517 29.3364 18.5821C29.4014 18.6471 29.4989 18.6861 29.5899 18.6861H30.3959V19.2581C30.3959 19.4336 30.4934 19.6026 30.6559 19.6806C30.8119 19.7651 31.0069 19.7521 31.1499 19.6481L32.996 18.3545C33.126 18.2635 33.1975 18.1205 33.1975 17.9645C33.1975 17.8085 33.1195 17.6655 32.996 17.5745L31.1499 16.281C31.0004 16.177 30.8119 16.164 30.6559 16.2485C30.4934 16.3265 30.3959 16.489 30.3959 16.671Z" fill="white"/>
</svg>
